<?xml version="1.0" encoding="utf-8"?>
<!-- Generator: Adobe Illustrator 26.2.1, SVG Export Plug-In . SVG Version: 6.00 Build 0)  -->
<svg version="1.1" id="Layer_1" xmlns="http://www.w3.org/2000/svg" xmlns:xlink="http://www.w3.org/1999/xlink" x="0px" y="0px"
	 viewBox="0 0 360.3 391.9" style="enable-background:new 0 0 360.3 391.9;" xml:space="preserve">
<style type="text/css">
	.st0{fill:#24195D;stroke:#24195D;stroke-width:3;}
	.st1{fill:#009FE3;stroke:#009FE3;stroke-width:3;}
	.st2{fill:#24195D;}
</style>
<g id="BI">
	<g>
		<path class="st0" d="M264.5,276.5c58.7,22.7,60.6,55.5,4.3,73.3c6.5-1.4,12.6-3,18.4-4.8c56.4-17.8,54.5-50.6-4.2-73.3
			C224.3,249,131,245,74.6,262.8c0,0-0.1,0-0.1,0C131.2,250.8,211.8,256.1,264.5,276.5z"/>
	</g>
	<g>
		<path class="st1" d="M253.5,233.4c-47-19.1-79.6-54.7-72.8-79.5c4.8-17.5,27.9-24.9,57.5-21.1c-38.7-8.3-70.6,0.1-76.9,22.8
			c-7.8,28.2,14.4,57.2,64.3,79.7c49.4,22.3,103.1,22.5,117.6-0.1C327.3,248.8,291.5,248.8,253.5,233.4z"/>
	</g>
	<g>
		<path class="st1" d="M153.3,75.2c50.2-46.4,88.6-30.1,82.9,40.5c1.2-7.5,2.1-14.8,2.6-21.9C243.2,25,206,6.8,155.9,53.2
			c-50.2,46.5-94.5,140-98.9,208.9c0,0,0,0.1,0,0.1C67.9,196.6,108.2,117,153.3,75.2z"/>
	</g>
	<path class="st1" d="M354.3,19.8c-11.8-20.3-42.6-24.3-68.9-9.1C264,23.1,252.2,44.6,255,63c0.1-14,10.4-29.8,27.4-39.7
		c22.5-13.1,47.5-10.3,57.4,5.1c11.5,17.8-2.8,42.3-20.5,54.8l-1.8-3.5c-0.6,0.4-1.2,0.7-1.8,1.1c-16.6,9.6-34.9,10.9-47.1,4.5
		c14.8,10.7,38.5,10.8,59.4-1.3C354.3,68.9,366,40.1,354.3,19.8z"/>
	<path class="st1" d="M333.5,110.4c-11.8-20.4-44.8-20.5-80.1-2.7c16.4-6.6,31-5.7,42.1-0.7l0.8-3.3c43.5,14.7,11.3,76.4-36.5,113.6
		C305.3,185.9,348.1,135.7,333.5,110.4z"/>
</g>
<g id="Layer_1_copy">
	<g>
		<path class="st2" d="M0,288.7c2.4-0.5,6.8-0.9,11.1-0.9c5.6,0,9.1,0.7,12,2.8c2.6,1.6,4.4,4.4,4.4,8.1c0,4-2.4,7.6-7,9.3v0.1
			c4.4,1.1,8.4,4.7,8.4,10.7c0,3.8-1.6,6.9-4,8.9c-3,2.7-7.9,4-15.5,4c-4.2,0-7.5-0.3-9.4-0.6L0,288.7L0,288.7z M7.6,305.7h3.9
			c5.3,0,8.3-2.6,8.3-6.2c0-4-3-5.9-7.8-5.9c-2.2,0-3.5,0.1-4.4,0.3V305.7z M7.6,325.5c1,0.1,2.3,0.2,4,0.2c4.9,0,9.2-1.9,9.2-7.2
			c0-5-4.2-7-9.5-7H7.6L7.6,325.5L7.6,325.5z"/>
		<path class="st2" d="M51.1,331.2l-0.5-3.5h-0.2c-1.9,2.4-5,4.2-8.9,4.2c-6.1,0-9.5-4.5-9.5-9.3c0-7.9,6.8-11.8,17.9-11.8v-0.5
			c0-2-0.8-5.4-6.1-5.4c-3,0-6.1,1-8.1,2.3l-1.5-5.1c2.2-1.4,6.1-2.8,10.9-2.8c9.7,0,12.5,6.3,12.5,13.1v11.3c0,2.8,0.1,5.6,0.4,7.5
			L51.1,331.2L51.1,331.2z M50.1,316c-5.4-0.1-10.5,1.1-10.5,5.8c0,3.1,1.9,4.5,4.4,4.5c3,0,5.3-2,6-4.3c0.2-0.6,0.2-1.2,0.2-1.7
			L50.1,316L50.1,316z"/>
		<path class="st2" d="M63.8,331.2c0.1-2.1,0.2-5.6,0.2-8.8v-36.7h7.6v18.6h0.1c1.9-3,5.1-5,9.7-5c7.4,0,12.7,6.3,12.6,15.8
			c0,11.2-6.9,16.8-13.7,16.8c-3.9,0-7.4-1.5-9.6-5.4h-0.1l-0.4,4.7H63.8z M71.7,318.3c0,0.6,0.1,1.3,0.2,1.9
			c0.8,3.1,3.5,5.5,6.8,5.5c4.8,0,7.7-4,7.7-10.2c0-5.5-2.5-10-7.6-10c-3.1,0-5.9,2.3-6.8,5.8c-0.1,0.6-0.2,1.3-0.2,2L71.7,318.3
			L71.7,318.3z"/>
		<path class="st2" d="M98.8,310.1c0-4.2-0.1-7.2-0.2-10h6.6l0.2,6h0.2c1.5-4.4,5-6.7,8.3-6.7c0.7,0,1.2,0.1,1.8,0.2v7.4
			c-0.6-0.1-1.3-0.3-2.2-0.3c-3.7,0-6.1,2.4-6.8,6c-0.1,0.7-0.2,1.5-0.2,2.4v16.1h-7.6V310.1z"/>
		<path class="st2" d="M135.8,331.2l-0.5-3.5h-0.2c-1.9,2.4-5,4.2-8.9,4.2c-6.1,0-9.5-4.5-9.5-9.3c0-7.9,6.8-11.8,17.9-11.8v-0.5
			c0-2-0.8-5.4-6.1-5.4c-3,0-6.1,1-8.1,2.3l-1.5-5.1c2.2-1.4,6.1-2.8,10.9-2.8c9.7,0,12.5,6.3,12.5,13.1v11.3c0,2.8,0.1,5.6,0.4,7.5
			L135.8,331.2L135.8,331.2z M134.8,316c-5.4-0.1-10.5,1.1-10.5,5.8c0,3.1,1.9,4.5,4.4,4.5c3,0,5.3-2,6-4.3c0.2-0.6,0.2-1.2,0.2-1.7
			L134.8,316L134.8,316z"/>
		<path class="st2" d="M148.8,285.8h7.7v18.6h0.1c0.9-1.5,2.2-2.7,3.8-3.6c1.5-0.9,3.3-1.4,5.2-1.4c5.1,0,10.5,3.5,10.5,13.5v18.4
			h-7.6v-17.5c0-4.5-1.6-7.9-5.8-7.9c-3,0-5.1,2-5.9,4.4c-0.2,0.6-0.3,1.5-0.3,2.4v18.6h-7.7L148.8,285.8L148.8,285.8z"/>
		<path class="st2" d="M199.8,331.2l-0.5-3.5h-0.2c-1.9,2.4-5,4.2-8.9,4.2c-6.1,0-9.5-4.5-9.5-9.3c0-7.9,6.8-11.8,17.9-11.8v-0.5
			c0-2-0.8-5.4-6.1-5.4c-3,0-6.1,1-8.1,2.3l-1.5-5.1c2.2-1.4,6.1-2.8,10.9-2.8c9.7,0,12.5,6.3,12.5,13.1v11.3c0,2.8,0.1,5.6,0.4,7.5
			L199.8,331.2L199.8,331.2z M198.8,316c-5.4-0.1-10.5,1.1-10.5,5.8c0,3.1,1.9,4.5,4.4,4.5c3,0,5.3-2,6-4.3c0.2-0.6,0.2-1.2,0.2-1.7
			L198.8,316L198.8,316z"/>
		<path class="st2" d="M212.8,309.3c0-3.6-0.1-6.6-0.2-9.3h6.6l0.3,4.6h0.2c1.5-2.4,4.2-5.3,9.3-5.3c4,0,7.1,2.3,8.4,5.8h0.1
			c1.1-1.7,2.3-3,3.7-3.9c1.7-1.2,3.6-1.9,6.1-1.9c5,0,10.1,3.5,10.1,13.5v18.4h-7.5V314c0-5.2-1.7-8.2-5.4-8.2
			c-2.6,0-4.5,1.9-5.3,4.2c-0.2,0.8-0.4,1.7-0.4,2.6v18.7h-7.5v-18c0-4.4-1.7-7.4-5.2-7.4c-2.9,0-4.8,2.3-5.5,4.5
			c-0.3,0.8-0.4,1.7-0.4,2.6v18.4h-7.5V309.3z"/>
	</g>
	<g>
		<path class="st2" d="M6,348.1v43.1H0.5v-43.1H6z"/>
		<path class="st2" d="M14.4,368.6c0-3.2-0.1-5.8-0.3-8.4h5l0.3,5.1h0.1c1.5-2.9,5.1-5.8,10.2-5.8c4.3,0,10.9,2.6,10.9,13.2v18.5
			h-5.6v-17.9c0-5-1.9-9.1-7.2-9.1c-3.7,0-6.6,2.6-7.5,5.8c-0.3,0.7-0.4,1.7-0.4,2.6v18.6h-5.6L14.4,368.6L14.4,368.6z"/>
		<path class="st2" d="M47.4,385.4c1.7,1.1,4.6,2.2,7.4,2.2c4.1,0,6-2,6-4.6c0-2.7-1.6-4.2-5.8-5.7c-5.6-2-8.2-5.1-8.2-8.8
			c0-5,4-9.1,10.7-9.1c3.1,0,5.9,0.9,7.6,1.9l-1.4,4.1c-1.2-0.8-3.5-1.8-6.3-1.8c-3.3,0-5.2,1.9-5.2,4.2c0,2.6,1.9,3.7,5.9,5.2
			c5.4,2,8.1,4.7,8.1,9.3c0,5.4-4.2,9.3-11.6,9.3c-3.4,0-6.5-0.8-8.7-2.1L47.4,385.4z"/>
		<path class="st2" d="M78.5,351.3v8.9h8.1v4.3h-8.1v16.7c0,3.8,1.1,6,4.2,6c1.5,0,2.6-0.2,3.3-0.4l0.3,4.2c-1.1,0.5-2.8,0.8-5,0.8
			c-2.6,0-4.7-0.8-6.1-2.4c-1.6-1.7-2.2-4.4-2.2-8.1v-16.9h-4.8v-4.3H73v-7.4L78.5,351.3z"/>
		<path class="st2" d="M97.4,351.5c0.1,1.9-1.3,3.5-3.6,3.5c-2,0-3.4-1.5-3.4-3.5c0-2,1.5-3.5,3.5-3.5C96,348,97.4,349.5,97.4,351.5
			z M91.1,391.2v-31h5.6v31H91.1z"/>
		<path class="st2" d="M111.1,351.3v8.9h8.1v4.3h-8.1v16.7c0,3.8,1.1,6,4.2,6c1.5,0,2.6-0.2,3.3-0.4l0.3,4.2c-1.1,0.5-2.8,0.8-5,0.8
			c-2.6,0-4.7-0.8-6.1-2.4c-1.6-1.7-2.2-4.4-2.2-8.1v-16.9h-4.8v-4.3h4.8v-7.4L111.1,351.3z"/>
		<path class="st2" d="M149.6,382.7c0,3.2,0.1,6,0.3,8.5h-5l-0.3-5.1h-0.1c-1.5,2.5-4.7,5.8-10.2,5.8c-4.9,0-10.7-2.7-10.7-13.6
			v-18.1h5.6v17.1c0,5.9,1.8,9.9,6.9,9.9c3.8,0,6.4-2.6,7.4-5.1c0.3-0.8,0.5-1.9,0.5-2.9v-19h5.6L149.6,382.7L149.6,382.7z"/>
		<path class="st2" d="M163.9,351.3v8.9h8.1v4.3h-8.1v16.7c0,3.8,1.1,6,4.2,6c1.5,0,2.6-0.2,3.3-0.4l0.3,4.2c-1.1,0.5-2.8,0.8-5,0.8
			c-2.6,0-4.7-0.8-6.1-2.4c-1.6-1.7-2.2-4.4-2.2-8.1v-16.9h-4.8v-4.3h4.8v-7.4L163.9,351.3z"/>
		<path class="st2" d="M179.3,376.7c0.1,7.6,5,10.8,10.6,10.8c4,0,6.5-0.7,8.6-1.6l1,4c-2,0.9-5.4,1.9-10.3,1.9
			c-9.5,0-15.2-6.3-15.2-15.6s5.5-16.7,14.5-16.7c10.1,0,12.8,8.9,12.8,14.6c0,1.1-0.1,2-0.2,2.6H179.3z M195.8,372.7
			c0.1-3.6-1.5-9.1-7.8-9.1c-5.7,0-8.2,5.2-8.6,9.1H195.8z"/>
	</g>
</g>
</svg>
