<svg width="227" height="58" viewBox="0 0 227 58" fill="none" xmlns="http://www.w3.org/2000/svg">
<path fill-rule="evenodd" clip-rule="evenodd" d="M30 5C40.4934 5 49 13.5066 49 24C49 27.9821 47.7734 31.6769 45.6797 34.7305L51.416 40.4658L46.4658 45.416L40.7305 39.6797C37.6769 41.7734 33.9821 43 30 43C19.5066 43 11 34.4934 11 24C11 13.5066 19.5066 5 30 5ZM30 12C23.3726 12 18 17.3726 18 24C18 30.6274 23.3726 36 30 36C36.6274 36 42 30.6274 42 24C42 17.3726 36.6274 12 30 12Z" fill="#800000"/>
<path d="M40.1611 17.6221C41.3243 19.4699 42 21.6552 42 24C42 24.1271 41.9971 24.2537 41.9932 24.3799C36.821 25.7144 33 30.4109 33 36C33 42.6274 38.3726 48 45 48C48.3467 48 51.3714 46.6278 53.5479 44.418L58.498 49.3682C55.0547 52.8447 50.2797 55 45 55C34.5066 55 26 46.4934 26 36C26 27.1788 32.0115 19.7621 40.1611 17.6221Z" fill="#000080"/>
<path d="M47.7441 17.1973C51.8603 17.7931 55.5488 19.7088 58.3682 22.501L53.418 27.4512C52.1751 26.2272 50.6666 25.2729 48.9873 24.6807C48.9953 24.4548 49 24.2279 49 24C49 21.6026 48.5545 19.3095 47.7441 17.1973Z" fill="#000080"/>
<path d="M13.4795 8C12.5805 8.92807 11.759 9.93133 11.0254 11H0V8H13.4795Z" fill="url(#paint0_linear_14_85)"/>
<path d="M9.28125 14C8.81501 14.9642 8.41577 15.9665 8.08594 17H0V14H9.28125Z" fill="url(#paint1_linear_14_85)"/>
<path d="M7.34766 20C7.17578 20.9801 7.06702 21.9814 7.02344 23H0V20H7.34766Z" fill="url(#paint2_linear_14_85)"/>
<path d="M7.08594 26C7.17385 27.0206 7.32905 28.0219 7.5459 29H0V26H7.08594Z" fill="url(#paint3_linear_14_85)"/>
<path d="M8.42871 32C8.81376 33.0377 9.2735 34.0392 9.79785 35H0V32H8.42871Z" fill="url(#paint4_linear_14_85)"/>
<path d="M11.751 38C12.581 39.0801 13.5054 40.0836 14.5107 41H0V38H11.751Z" fill="url(#paint5_linear_14_85)"/>
<path d="M18.6387 44C20.8037 45.2323 23.1878 46.1241 25.7188 46.6006C25.7928 46.735 25.8705 46.8673 25.9473 47H0V44H18.6387Z" fill="url(#paint6_linear_14_85)"/>
<path d="M28.0332 50C28.9369 51.094 29.944 52.0988 31.04 53H0V50H28.0332Z" fill="url(#paint7_linear_14_85)"/>
<path d="M71.88 46V12.4H91.584V16.432H75.912V25.984H89.28V30.016H75.912V46H71.88ZM112.035 22H116.067V46H112.035L111.867 41.944C111.115 43.336 110.075 44.464 108.747 45.328C107.435 46.192 105.867 46.624 104.043 46.624C102.283 46.624 100.635 46.296 99.0994 45.64C97.5634 44.968 96.2034 44.048 95.0194 42.88C93.8514 41.696 92.9394 40.336 92.2834 38.8C91.6274 37.264 91.2994 35.608 91.2994 33.832C91.2994 32.12 91.6194 30.504 92.2594 28.984C92.8994 27.464 93.7874 26.136 94.9234 25C96.0754 23.848 97.4034 22.952 98.9074 22.312C100.411 21.656 102.027 21.328 103.755 21.328C105.643 21.328 107.299 21.776 108.723 22.672C110.147 23.552 111.299 24.696 112.179 26.104L112.035 22ZM103.971 42.712C105.555 42.712 106.923 42.328 108.075 41.56C109.243 40.776 110.139 39.72 110.763 38.392C111.403 37.064 111.723 35.6 111.723 34C111.723 32.368 111.403 30.896 110.763 29.584C110.123 28.256 109.219 27.208 108.051 26.44C106.899 25.656 105.539 25.264 103.971 25.264C102.387 25.264 100.947 25.656 99.6514 26.44C98.3554 27.224 97.3234 28.28 96.5554 29.608C95.8034 30.92 95.4274 32.384 95.4274 34C95.4274 35.616 95.8194 37.088 96.6034 38.416C97.3874 39.728 98.4274 40.776 99.7234 41.56C101.019 42.328 102.435 42.712 103.971 42.712ZM128.184 46.456C126.888 46.408 125.624 46.168 124.392 45.736C123.176 45.288 122.104 44.688 121.176 43.936C120.264 43.168 119.6 42.288 119.184 41.296L122.64 39.808C122.88 40.352 123.312 40.864 123.936 41.344C124.56 41.824 125.28 42.208 126.096 42.496C126.912 42.784 127.736 42.928 128.568 42.928C129.448 42.928 130.272 42.792 131.04 42.52C131.808 42.248 132.432 41.848 132.912 41.32C133.408 40.776 133.656 40.128 133.656 39.376C133.656 38.576 133.384 37.952 132.84 37.504C132.312 37.04 131.64 36.68 130.824 36.424C130.024 36.152 129.208 35.896 128.376 35.656C126.728 35.24 125.256 34.744 123.96 34.168C122.664 33.576 121.64 32.832 120.888 31.936C120.152 31.024 119.784 29.864 119.784 28.456C119.784 26.968 120.192 25.68 121.008 24.592C121.84 23.504 122.928 22.664 124.272 22.072C125.616 21.48 127.056 21.184 128.592 21.184C130.528 21.184 132.296 21.6 133.896 22.432C135.496 23.264 136.688 24.392 137.472 25.816L134.232 27.712C133.96 27.136 133.544 26.632 132.984 26.2C132.424 25.752 131.784 25.4 131.064 25.144C130.344 24.888 129.608 24.752 128.856 24.736C127.928 24.704 127.056 24.824 126.24 25.096C125.44 25.368 124.792 25.784 124.296 26.344C123.816 26.888 123.576 27.568 123.576 28.384C123.576 29.184 123.832 29.792 124.344 30.208C124.872 30.624 125.552 30.96 126.384 31.216C127.232 31.456 128.152 31.736 129.144 32.056C130.6 32.52 131.96 33.056 133.224 33.664C134.488 34.272 135.504 35.032 136.272 35.944C137.056 36.856 137.44 37.984 137.424 39.328C137.424 40.8 136.984 42.088 136.104 43.192C135.224 44.28 134.08 45.112 132.672 45.688C131.28 46.264 129.784 46.52 128.184 46.456ZM153.968 26.032H148.52L148.496 46H144.464L144.488 26.032H140.36V22H144.488L144.464 14.464H148.496L148.52 22H153.968V26.032ZM187.983 46.696L184.047 42.76C182.671 43.944 181.111 44.872 179.367 45.544C177.639 46.2 175.807 46.528 173.871 46.528C171.583 46.528 169.439 46.08 167.439 45.184C165.439 44.272 163.679 43.024 162.159 41.44C160.639 39.84 159.447 37.984 158.583 35.872C157.735 33.76 157.311 31.504 157.311 29.104C157.311 26.704 157.735 24.456 158.583 22.36C159.447 20.248 160.639 18.392 162.159 16.792C163.679 15.192 165.439 13.944 167.439 13.048C169.439 12.136 171.583 11.68 173.871 11.68C176.159 11.68 178.295 12.136 180.279 13.048C182.279 13.944 184.039 15.192 185.559 16.792C187.079 18.392 188.263 20.248 189.111 22.36C189.975 24.456 190.407 26.704 190.407 29.104C190.407 31.152 190.087 33.088 189.447 34.912C188.823 36.736 187.951 38.392 186.831 39.88L190.839 43.84L187.983 46.696ZM173.871 42.496C175.183 42.496 176.471 42.272 177.735 41.824C178.999 41.36 180.127 40.696 181.119 39.832L176.655 35.392L179.511 32.512L183.831 36.88C184.663 35.776 185.295 34.56 185.727 33.232C186.159 31.888 186.375 30.512 186.375 29.104C186.375 27.264 186.047 25.536 185.391 23.92C184.751 22.304 183.855 20.88 182.703 19.648C181.551 18.416 180.215 17.456 178.695 16.768C177.191 16.064 175.583 15.712 173.871 15.712C172.127 15.712 170.495 16.072 168.975 16.792C167.471 17.496 166.143 18.472 164.991 19.72C163.855 20.952 162.959 22.376 162.303 23.992C161.663 25.592 161.343 27.296 161.343 29.104C161.343 30.944 161.671 32.672 162.327 34.288C162.983 35.904 163.887 37.336 165.039 38.584C166.191 39.816 167.519 40.776 169.023 41.464C170.543 42.152 172.159 42.496 173.871 42.496ZM210.995 46.624C208.723 46.624 206.587 46.176 204.587 45.28C202.587 44.368 200.827 43.12 199.307 41.536C197.803 39.936 196.619 38.08 195.755 35.968C194.907 33.856 194.483 31.6 194.483 29.2C194.483 26.8 194.907 24.544 195.755 22.432C196.619 20.32 197.803 18.472 199.307 16.888C200.827 15.288 202.587 14.04 204.587 13.144C206.587 12.232 208.723 11.776 210.995 11.776C213.715 11.776 216.219 12.408 218.507 13.672C220.795 14.936 222.691 16.616 224.195 18.712L220.619 20.632C219.499 19.16 218.083 17.992 216.371 17.128C214.675 16.248 212.883 15.808 210.995 15.808C209.251 15.808 207.619 16.16 206.099 16.864C204.595 17.568 203.275 18.536 202.139 19.768C201.003 21 200.115 22.424 199.475 24.04C198.835 25.656 198.515 27.376 198.515 29.2C198.515 31.04 198.835 32.768 199.475 34.384C200.131 36 201.027 37.424 202.163 38.656C203.315 39.888 204.643 40.856 206.147 41.56C207.667 42.248 209.283 42.592 210.995 42.592C212.947 42.592 214.755 42.152 216.419 41.272C218.099 40.376 219.499 39.208 220.619 37.768L224.195 39.712C222.691 41.808 220.795 43.488 218.507 44.752C216.219 46 213.715 46.624 210.995 46.624Z" fill="black"/>
<defs>
<linearGradient id="paint0_linear_14_85" x1="0" y1="9.5" x2="32" y2="9.5" gradientUnits="userSpaceOnUse">
<stop stop-opacity="0"/>
<stop offset="1"/>
</linearGradient>
<linearGradient id="paint1_linear_14_85" x1="0" y1="15.5" x2="32" y2="15.5" gradientUnits="userSpaceOnUse">
<stop stop-opacity="0"/>
<stop offset="1"/>
</linearGradient>
<linearGradient id="paint2_linear_14_85" x1="0" y1="21.5" x2="32" y2="21.5" gradientUnits="userSpaceOnUse">
<stop stop-opacity="0"/>
<stop offset="1"/>
</linearGradient>
<linearGradient id="paint3_linear_14_85" x1="0" y1="27.5" x2="32" y2="27.5" gradientUnits="userSpaceOnUse">
<stop stop-opacity="0"/>
<stop offset="1"/>
</linearGradient>
<linearGradient id="paint4_linear_14_85" x1="0" y1="33.5" x2="32" y2="33.5" gradientUnits="userSpaceOnUse">
<stop stop-opacity="0"/>
<stop offset="1"/>
</linearGradient>
<linearGradient id="paint5_linear_14_85" x1="0" y1="39.5" x2="32" y2="39.5" gradientUnits="userSpaceOnUse">
<stop stop-opacity="0"/>
<stop offset="1"/>
</linearGradient>
<linearGradient id="paint6_linear_14_85" x1="0" y1="45.5" x2="32" y2="45.5" gradientUnits="userSpaceOnUse">
<stop stop-opacity="0"/>
<stop offset="1"/>
</linearGradient>
<linearGradient id="paint7_linear_14_85" x1="0" y1="51.5" x2="32" y2="51.5" gradientUnits="userSpaceOnUse">
<stop stop-opacity="0"/>
<stop offset="1"/>
</linearGradient>
</defs>
</svg>
